<?xml version="1.0" encoding="utf-8"?>
<!-- Generator: Adobe Illustrator 19.0.0, SVG Export Plug-In . SVG Version: 6.00 Build 0)  -->
<svg version="1.1" id="Layer_1" xmlns="http://www.w3.org/2000/svg" xmlns:xlink="http://www.w3.org/1999/xlink" x="0px" y="0px"
	 viewBox="0 0 792 612" style="enable-background:new 0 0 792 612;" xml:space="preserve">
<style type="text/css">
	.st0{stroke:#F7941E;stroke-width:2;stroke-miterlimit:10;}
	.st1{fill:#FFFFFF;stroke:#F7941E;stroke-width:2;stroke-miterlimit:10;}
	.st2{fill:none;}
	.st3{font-family:'TrebuchetMS';}
	.st4{font-size:59px;}
	.st5{fill:#FBB040;}
	.st6{fill:#BE1E2D;stroke:#FFFFFF;stroke-width:2;stroke-miterlimit:10;}
	.st7{fill:#F7941E;stroke:#FFFFFF;stroke-width:2;stroke-miterlimit:10;}
	.st8{stroke:#FFFFFF;stroke-miterlimit:10;}
	.st9{font-size:67px;}
</style>
<g id="XMLID_14_">
	<g id="XMLID_12_">
		<ellipse id="XMLID_11_" class="st0" cx="384" cy="306" rx="239.7" ry="93.8"/>
		<ellipse id="XMLID_13_" class="st1" cx="384" cy="306" rx="227.7" ry="89.1"/>
	</g>
	<rect id="XMLID_1_" x="196.7" y="283.1" class="st2" width="442.3" height="52.6"/>
	<text id="XMLID_2_" transform="matrix(1 0 0 1 295.827 326.5965)" class="st0 st3 st4">Machinga</text>
	<g id="XMLID_10_">
		<path id="XMLID_3_" class="st2" d="M306.4,335.7c-13.6,4.2-27.4,9.8-39.6,17.3c9.4-1.5,18-6.4,25.4-12.2c-3.6,2.5-7.3,5-11,7.2"/>
		<path id="XMLID_6_" class="st2" d="M255,340.4c27.5-7.6,54.8-16,81.7-25.4"/>
		
			<rect id="XMLID_4_" x="236.1" y="246.7" transform="matrix(0.9731 -0.2304 0.2304 0.9731 -62.7856 68.1416)" class="st5" width="48.5" height="112.4"/>
		
			<rect id="XMLID_9_" x="241" y="242.1" transform="matrix(0.9998 1.768839e-002 -1.768839e-002 0.9998 5.318 -4.6452)" class="st6" width="48.5" height="112.4"/>
		<g id="XMLID_8_">
			
				<rect id="XMLID_7_" x="247.8" y="239" transform="matrix(0.9716 0.2367 -0.2367 0.9716 77.5951 -56.0003)" class="st7" width="48.5" height="112.4"/>
			<text id="XMLID_5_" transform="matrix(0.9731 0.2304 -0.2304 0.9731 248.2508 313.3138)" class="st8 st3 st9">$</text>
		</g>
	</g>
</g>
</svg>
